<svg xmlns="http://www.w3.org/2000/svg" version="1.1" xmlns:xlink="http://www.w3.org/1999/xlink"
    xmlns:svgjs="http://svgjs.dev/svgjs" viewBox="0 0 7.596742886515285 7.860614905144914">
    <g transform="matrix(1,0,0,1,0.6439439530232676,3.976670952121646)">
        <rect width="7.596742886515285" height="7.860614905144914" x="-0.6439439530232675"
            y="-3.976670952121646" fill="#ebebeb"></rect>
        <g>
            <path
                d=" M 1.8225000000000002 3.2399999999999998 Q 1.4805000000000001 3.2399999999999998 1.1835000000000002 3.114 Q 0.8865000000000001 2.988 0.6615000000000001 2.76525 Q 0.43650000000000005 2.5424999999999995 0.30825 2.25 Q 0.18000000000000002 1.9574999999999998 0.18000000000000002 1.6199999999999997 Q 0.18000000000000002 1.2824999999999995 0.30825 0.9899999999999998 Q 0.43650000000000005 0.6974999999999993 0.6615000000000001 0.47474999999999934 Q 0.8865000000000001 0.25199999999999934 1.1835000000000002 0.12599999999999945 Q 1.4805000000000001 -4.440892098500626e-16 1.8225000000000002 -4.440892098500626e-16 Q 2.0340000000000003 -4.440892098500626e-16 2.232 0.044999999999999485 Q 2.43 0.08999999999999941 2.5965000000000003 0.17999999999999927 Q 2.664 0.2159999999999993 2.6977500000000005 0.2767499999999994 Q 2.7315000000000005 0.33749999999999947 2.7315000000000005 0.40049999999999963 Q 2.7315000000000005 0.5084999999999997 2.6595000000000004 0.5939999999999994 Q 2.5875000000000004 0.6794999999999995 2.475 0.6794999999999995 Q 2.4390000000000005 0.6794999999999995 2.4007500000000004 0.6704999999999997 Q 2.3625000000000003 0.6614999999999998 2.3265000000000002 0.6434999999999995 Q 2.2140000000000004 0.5939999999999994 2.088 0.5669999999999997 Q 1.9620000000000002 0.5399999999999996 1.8225000000000002 0.5399999999999996 Q 1.5300000000000002 0.5399999999999996 1.2892500000000002 0.6862499999999994 Q 1.0485000000000002 0.8324999999999996 0.9067500000000001 1.0777499999999995 Q 0.7650000000000001 1.3229999999999995 0.7650000000000001 1.6199999999999997 Q 0.7650000000000001 1.9124999999999996 0.9067500000000001 2.1599999999999997 Q 1.0485000000000002 2.4074999999999998 1.2892500000000002 2.55375 Q 1.5300000000000002 2.6999999999999997 1.8225000000000002 2.6999999999999997 Q 1.9575000000000002 2.6999999999999997 2.1195000000000004 2.673 Q 2.2815000000000003 2.646 2.3850000000000002 2.601 L 2.3445000000000005 2.7359999999999998 L 2.3445000000000005 1.9664999999999997 L 2.4210000000000003 2.034 L 1.9215000000000002 2.034 Q 1.8045000000000002 2.034 1.7257500000000001 1.9574999999999998 Q 1.6470000000000002 1.8809999999999998 1.6470000000000002 1.7639999999999996 Q 1.6470000000000002 1.6469999999999996 1.7257500000000001 1.5704999999999996 Q 1.8045000000000002 1.4939999999999996 1.9215000000000002 1.4939999999999996 L 2.6595000000000004 1.4939999999999996 Q 2.7765000000000004 1.4939999999999996 2.853 1.5727499999999996 Q 2.9295000000000004 1.6514999999999997 2.9295000000000004 1.7684999999999997 L 2.9295000000000004 2.7224999999999997 Q 2.9295000000000004 2.8125 2.88675 2.8709999999999996 Q 2.8440000000000003 2.9295 2.7900000000000005 2.9654999999999996 Q 2.583 3.0915 2.33775 3.1657499999999996 Q 2.0925000000000002 3.2399999999999998 1.8225000000000002 3.2399999999999998 Z M 4.999427490234375 3.2399999999999998 Q 4.657427490234375 3.2399999999999998 4.360427490234375 3.114 Q 4.063427490234375 2.988 3.838427490234375 2.76525 Q 3.613427490234375 2.5424999999999995 3.485177490234375 2.25 Q 3.356927490234375 1.9574999999999998 3.356927490234375 1.6199999999999997 Q 3.356927490234375 1.2824999999999995 3.485177490234375 0.9899999999999998 Q 3.613427490234375 0.6974999999999993 3.838427490234375 0.47474999999999934 Q 4.063427490234375 0.25199999999999934 4.360427490234375 0.12599999999999945 Q 4.657427490234375 -4.440892098500626e-16 4.999427490234375 -4.440892098500626e-16 Q 5.210927490234376 -4.440892098500626e-16 5.408927490234375 0.044999999999999485 Q 5.606927490234375 0.08999999999999941 5.773427490234376 0.17999999999999927 Q 5.840927490234375 0.2159999999999993 5.874677490234376 0.2767499999999994 Q 5.908427490234375 0.33749999999999947 5.908427490234375 0.40049999999999963 Q 5.908427490234375 0.5084999999999997 5.836427490234375 0.5939999999999994 Q 5.764427490234375 0.6794999999999995 5.651927490234375 0.6794999999999995 Q 5.615927490234375 0.6794999999999995 5.577677490234375 0.6704999999999997 Q 5.539427490234376 0.6614999999999998 5.503427490234375 0.6434999999999995 Q 5.390927490234375 0.5939999999999994 5.264927490234375 0.5669999999999997 Q 5.138927490234375 0.5399999999999996 4.999427490234375 0.5399999999999996 Q 4.706927490234375 0.5399999999999996 4.466177490234375 0.6862499999999994 Q 4.225427490234376 0.8324999999999996 4.083677490234375 1.0777499999999995 Q 3.941927490234375 1.3229999999999995 3.941927490234375 1.6199999999999997 Q 3.941927490234375 1.9124999999999996 4.083677490234375 2.1599999999999997 Q 4.225427490234376 2.4074999999999998 4.466177490234375 2.55375 Q 4.706927490234375 2.6999999999999997 4.999427490234375 2.6999999999999997 Q 5.134427490234375 2.6999999999999997 5.296427490234375 2.673 Q 5.458427490234375 2.646 5.561927490234375 2.601 L 5.521427490234375 2.7359999999999998 L 5.521427490234375 1.9664999999999997 L 5.597927490234375 2.034 L 5.098427490234375 2.034 Q 4.981427490234375 2.034 4.902677490234375 1.9574999999999998 Q 4.823927490234375 1.8809999999999998 4.823927490234375 1.7639999999999996 Q 4.823927490234375 1.6469999999999996 4.902677490234375 1.5704999999999996 Q 4.981427490234375 1.4939999999999996 5.098427490234375 1.4939999999999996 L 5.836427490234375 1.4939999999999996 Q 5.953427490234375 1.4939999999999996 6.029927490234375 1.5727499999999996 Q 6.106427490234376 1.6514999999999997 6.106427490234376 1.7684999999999997 L 6.106427490234376 2.7224999999999997 Q 6.106427490234376 2.8125 6.063677490234375 2.8709999999999996 Q 6.020927490234375 2.9295 5.966927490234376 2.9654999999999996 Q 5.759927490234375 3.0915 5.514677490234375 3.1657499999999996 Q 5.269427490234375 3.2399999999999998 4.999427490234375 3.2399999999999998 Z"
                fill="#212245" fill-rule="nonzero"></path>
        </g>
        <g></g>
        <g clip-path="url(&quot;#SvgjsClipPath1019&quot;)">
            <g clip-path="url(&quot;#SvgjsClipPath1008&quot;)">
                <path
                    d=" M 2.4374083352185814 -1.7810921735795933 L 3.1543836911724763 -2.4979173822889176 L 3.871208899881801 -1.7809420263350222 L 3.154233543927906 -1.064116817625698 Z"
                    fill="#a4cb6a" transform="matrix(1,0,0,1,0,0)" fill-rule="nonzero"></path>
            </g>
            <g clip-path="url(&quot;#SvgjsClipPath1008&quot;)">
                <path
                    d=" M 2.7833352517046954 -2.8516629063900796 L 1.7127416758653502 -1.7810693305507341 L 2.7632490682930753 -0.7310640927082996 L 2.2821849755847765 -0.25 L 2.272644038464257 -0.25903878253522894 L 1.2316775831570514 -1.3000052378424356 L 1.2025526172102023 -1.3296323583745746 C 0.9625227254413437 -1.5689927106963797 0.8838518404124988 -1.7718631631537416 0.9665399621236677 -1.9382437157466605 C 1.009944570448075 -2.022481907691123 1.0671436097558924 -2.098860446826191 1.135766057366565 -2.164213279127384 L 2.3022711589963967 -3.3327269990983783 Z"
                    fill="#212245" transform="matrix(1,0,0,1,0,0)" fill-rule="evenodd"></path>
            </g>
            <g clip-path="url(&quot;#SvgjsClipPath1008&quot;)">
                <path
                    d=" M 3.525519728764054 -2.8516629063900796 L 4.596113304603399 -1.7810693305507341 L 3.546108066760965 -0.7310640927082996 L 4.027172159469263 -0.25 L 4.036713096589783 -0.25903878253522894 L 5.077177397311698 -1.3000052378424356 L 5.106302363258547 -1.3296323583745746 C 5.346332255027406 -1.5689927106963797 5.425003140056252 -1.7718631631537416 5.342315018345083 -1.9382437157466605 C 5.299517580462648 -2.0223341674780357 5.24300417601586 -2.098703632946669 5.175097541443347 -2.1642132791273854 L 4.006583821472352 -3.3327269990983783 Z"
                    fill="#64c6c4" transform="matrix(1,0,0,1,0,0)" fill-rule="evenodd"></path>
            </g>
        </g>
    </g>
    <defs>
        <clipPath id="SvgjsClipPath1019">
            <path
                d=" M 0.9349042232503662 -3.3327269990983783 h 4.439046533968018 v 3.0827269990983783 h -4.439046533968018 Z"></path>
        </clipPath>
        <clipPath id="SvgjsClipPath1008">
            <path
                d=" M 0.9349042232503662 -3.3327269990983783 L 5.373950757218384 -3.3327269990983783 L 5.373950757218384 -0.25 L 0.9349042232503662 -0.25 Z"></path>
        </clipPath>
    </defs>
</svg>